<svg width="212" height="42" viewBox="0 0 212 42" fill="none" xmlns="http://www.w3.org/2000/svg">
<path opacity="0.5" d="M40.0652 2.25671L30.2601 36.9917C30.2102 37.1494 30.0108 37.1967 29.8945 37.0863L23.3301 30.8583L28.2492 13.4514C28.2991 13.2937 28.1495 13.1518 27.9833 13.1991L9.63617 17.8662L3.10498 11.6697C2.98865 11.5593 3.03851 11.3701 3.20469 11.3228L39.7993 2.00444C39.9655 1.97291 40.115 2.11481 40.0652 2.25671Z" fill="#00B37E"/>
<path opacity="0.5" d="M23.3297 30.858L20.8037 39.8452C20.7538 40.0029 20.5544 40.0502 20.4381 39.9398L0.0634003 20.6251C-0.0529313 20.5147 -0.00307518 20.3255 0.163113 20.2782L9.63583 17.8658L23.3297 30.858Z" fill="#00B37E"/>
<path d="M28.2484 13.4511L23.3292 30.858L9.63533 17.8659L27.9825 13.1988C28.1487 13.1515 28.2982 13.2934 28.2484 13.4511Z" fill="#00B37E"/>
<path d="M59.4013 11.3104H62.5745L67.2468 24.6653L71.9192 11.3104H75.0923L68.5211 29.5H65.9726L59.4013 11.3104ZM57.6898 11.3104H60.8505L61.4252 24.328V29.5H57.6898V11.3104ZM73.6432 11.3104H76.8163V29.5H73.0685V24.328L73.6432 11.3104ZM79.3024 22.8788V22.6164C79.3024 21.6253 79.444 20.7134 79.7272 19.8805C80.0104 19.0393 80.4226 18.3106 80.964 17.6943C81.5053 17.078 82.1716 16.5991 82.9628 16.2576C83.754 15.9078 84.6618 15.7329 85.6863 15.7329C86.7107 15.7329 87.6227 15.9078 88.4222 16.2576C89.2217 16.5991 89.8922 17.078 90.4335 17.6943C90.9832 18.3106 91.3997 19.0393 91.6828 19.8805C91.966 20.7134 92.1076 21.6253 92.1076 22.6164V22.8788C92.1076 23.8616 91.966 24.7735 91.6828 25.6147C91.3997 26.4476 90.9832 27.1763 90.4335 27.801C89.8922 28.4173 89.2259 28.8962 88.4347 29.2377C87.6435 29.5791 86.7357 29.7499 85.7112 29.7499C84.6868 29.7499 83.7749 29.5791 82.9753 29.2377C82.1841 28.8962 81.5137 28.4173 80.964 27.801C80.4226 27.1763 80.0104 26.4476 79.7272 25.6147C79.444 24.7735 79.3024 23.8616 79.3024 22.8788ZM82.9004 22.6164V22.8788C82.9004 23.4451 82.9503 23.974 83.0503 24.4654C83.1502 24.9568 83.3085 25.3899 83.525 25.7646C83.7499 26.1311 84.0414 26.4184 84.3995 26.6266C84.7576 26.8349 85.1949 26.939 85.7112 26.939C86.211 26.939 86.6399 26.8349 86.998 26.6266C87.3561 26.4184 87.6435 26.1311 87.86 25.7646C88.0766 25.3899 88.2348 24.9568 88.3347 24.4654C88.443 23.974 88.4971 23.4451 88.4971 22.8788V22.6164C88.4971 22.0668 88.443 21.5504 88.3347 21.0673C88.2348 20.576 88.0724 20.1429 87.8475 19.7681C87.631 19.385 87.3436 19.0851 86.9855 18.8686C86.6274 18.6521 86.1943 18.5438 85.6863 18.5438C85.1782 18.5438 84.7451 18.6521 84.387 18.8686C84.0372 19.0851 83.7499 19.385 83.525 19.7681C83.3085 20.1429 83.1502 20.576 83.0503 21.0673C82.9503 21.5504 82.9004 22.0668 82.9004 22.6164ZM97.8418 18.8686V29.5H94.2439V15.9828H97.6169L97.8418 18.8686ZM97.3171 22.2666H96.3426C96.3426 21.2672 96.4717 20.3677 96.7299 19.5682C96.9881 18.7603 97.3504 18.0732 97.8168 17.5069C98.2832 16.9322 98.8371 16.495 99.4784 16.1951C100.128 15.887 100.853 15.7329 101.652 15.7329C102.285 15.7329 102.864 15.8245 103.389 16.0077C103.913 16.191 104.363 16.4825 104.738 16.8822C105.121 17.282 105.412 17.8109 105.612 18.4688C105.821 19.1268 105.925 19.9305 105.925 20.8799V29.5H102.302V20.8675C102.302 20.2678 102.218 19.8014 102.052 19.4683C101.885 19.1351 101.64 18.9019 101.315 18.7687C100.998 18.6271 100.607 18.5563 100.14 18.5563C99.6574 18.5563 99.2368 18.6521 98.8787 18.8436C98.5289 19.0352 98.2374 19.3017 98.0042 19.6432C97.7793 19.9763 97.6086 20.3677 97.492 20.8175C97.3754 21.2672 97.3171 21.7503 97.3171 22.2666ZM114.882 29.7499C113.833 29.7499 112.891 29.5833 112.059 29.2501C111.226 28.9087 110.518 28.4381 109.935 27.8385C109.36 27.2388 108.919 26.5434 108.611 25.7521C108.302 24.9526 108.148 24.1031 108.148 23.2036V22.7039C108.148 21.6795 108.294 20.7425 108.586 19.893C108.877 19.0435 109.294 18.3064 109.835 17.6818C110.385 17.0571 111.051 16.5782 111.834 16.2451C112.617 15.9036 113.499 15.7329 114.482 15.7329C115.44 15.7329 116.29 15.8911 117.031 16.2076C117.772 16.5241 118.393 16.9739 118.892 17.5569C119.4 18.1398 119.783 18.8394 120.042 19.6556C120.3 20.4635 120.429 21.363 120.429 22.3541V23.8532H109.685V21.4546H116.893V21.1798C116.893 20.6801 116.802 20.2345 116.619 19.843C116.444 19.4433 116.177 19.1268 115.819 18.8936C115.461 18.6604 115.003 18.5438 114.445 18.5438C113.97 18.5438 113.562 18.6479 113.22 18.8561C112.879 19.0643 112.6 19.3558 112.383 19.7306C112.175 20.1054 112.017 20.5468 111.909 21.0548C111.809 21.5546 111.759 22.1042 111.759 22.7039V23.2036C111.759 23.745 111.834 24.2447 111.984 24.7028C112.142 25.1608 112.363 25.5564 112.646 25.8896C112.937 26.2227 113.287 26.4809 113.695 26.6641C114.112 26.8474 114.582 26.939 115.107 26.939C115.757 26.939 116.36 26.814 116.918 26.5642C117.485 26.306 117.972 25.9187 118.38 25.4024L120.129 27.3013C119.846 27.7094 119.459 28.1008 118.967 28.4756C118.484 28.8504 117.901 29.1585 117.218 29.4001C116.535 29.6333 115.757 29.7499 114.882 29.7499ZM126.313 27.9759L129.898 15.9828H133.759L128.324 31.5363C128.208 31.8778 128.049 32.2443 127.85 32.6357C127.658 33.0271 127.396 33.3978 127.063 33.7476C126.738 34.1057 126.325 34.3972 125.826 34.6221C125.334 34.8469 124.731 34.9594 124.014 34.9594C123.673 34.9594 123.394 34.9385 123.177 34.8969C122.961 34.8553 122.703 34.797 122.403 34.722V32.086C122.494 32.086 122.59 32.086 122.69 32.086C122.79 32.0943 122.886 32.0985 122.977 32.0985C123.452 32.0985 123.839 32.0444 124.139 31.9361C124.439 31.8278 124.681 31.6613 124.864 31.4364C125.047 31.2198 125.193 30.9367 125.301 30.5869L126.313 27.9759ZM124.814 15.9828L127.75 25.7771L128.262 29.5874L125.813 29.8498L120.954 15.9828H124.814ZM142.291 20.2803V23.1037H135.233V20.2803H142.291ZM156.058 23.466H159.794C159.719 24.6903 159.381 25.7771 158.782 26.7266C158.191 27.676 157.362 28.4173 156.296 28.9503C155.238 29.4833 153.964 29.7499 152.473 29.7499C151.307 29.7499 150.262 29.55 149.337 29.1502C148.413 28.7421 147.622 28.1591 146.964 27.4012C146.314 26.6433 145.818 25.7272 145.477 24.6528C145.136 23.5784 144.965 22.3749 144.965 21.0424V19.7806C144.965 18.448 145.14 17.2445 145.489 16.1701C145.848 15.0874 146.356 14.1671 147.014 13.4092C147.68 12.6513 148.475 12.0683 149.4 11.6602C150.324 11.2521 151.357 11.0481 152.498 11.0481C154.014 11.0481 155.292 11.3229 156.333 11.8726C157.383 12.4223 158.195 13.1802 158.769 14.1463C159.352 15.1124 159.702 16.2118 159.819 17.4444H156.071C156.029 16.7115 155.884 16.091 155.634 15.583C155.384 15.0666 155.005 14.6793 154.497 14.4211C153.997 14.1546 153.331 14.0214 152.498 14.0214C151.873 14.0214 151.328 14.138 150.861 14.3712C150.395 14.6044 150.004 14.9583 149.687 15.4331C149.371 15.9078 149.133 16.5075 148.975 17.232C148.825 17.9483 148.75 18.7895 148.75 19.7556V21.0424C148.75 21.9835 148.821 22.8122 148.962 23.5284C149.104 24.2364 149.321 24.836 149.612 25.3274C149.912 25.8104 150.295 26.1769 150.761 26.4268C151.236 26.6683 151.807 26.7891 152.473 26.7891C153.256 26.7891 153.901 26.6641 154.409 26.4143C154.917 26.1644 155.305 25.7938 155.571 25.3024C155.846 24.811 156.008 24.1989 156.058 23.466ZM165.828 10.311V29.5H162.217V10.311H165.828ZM172.599 15.9828V29.5H168.988V15.9828H172.599ZM168.764 12.4598C168.764 11.9351 168.947 11.502 169.313 11.1605C169.68 10.819 170.171 10.6483 170.787 10.6483C171.395 10.6483 171.883 10.819 172.249 11.1605C172.624 11.502 172.811 11.9351 172.811 12.4598C172.811 12.9845 172.624 13.4176 172.249 13.759C171.883 14.1005 171.395 14.2712 170.787 14.2712C170.171 14.2712 169.68 14.1005 169.313 13.759C168.947 13.4176 168.764 12.9845 168.764 12.4598ZM181.794 29.7499C180.744 29.7499 179.803 29.5833 178.97 29.2501C178.137 28.9087 177.429 28.4381 176.846 27.8385C176.272 27.2388 175.83 26.5434 175.522 25.7521C175.214 24.9526 175.06 24.1031 175.06 23.2036V22.7039C175.06 21.6795 175.206 20.7425 175.497 19.893C175.789 19.0435 176.205 18.3064 176.747 17.6818C177.296 17.0571 177.963 16.5782 178.745 16.2451C179.528 15.9036 180.411 15.7329 181.394 15.7329C182.352 15.7329 183.201 15.8911 183.942 16.2076C184.684 16.5241 185.304 16.9739 185.804 17.5569C186.312 18.1398 186.695 18.8394 186.953 19.6556C187.211 20.4635 187.34 21.363 187.34 22.3541V23.8532H176.597V21.4546H183.805V21.1798C183.805 20.6801 183.713 20.2345 183.53 19.843C183.355 19.4433 183.089 19.1268 182.731 18.8936C182.372 18.6604 181.914 18.5438 181.356 18.5438C180.882 18.5438 180.474 18.6479 180.132 18.8561C179.791 19.0643 179.512 19.3558 179.295 19.7306C179.087 20.1054 178.929 20.5468 178.82 21.0548C178.72 21.5546 178.67 22.1042 178.67 22.7039V23.2036C178.67 23.745 178.745 24.2447 178.895 24.7028C179.054 25.1608 179.274 25.5564 179.557 25.8896C179.849 26.2227 180.199 26.4809 180.607 26.6641C181.023 26.8474 181.494 26.939 182.019 26.939C182.668 26.939 183.272 26.814 183.83 26.5642C184.396 26.306 184.884 25.9187 185.292 25.4024L187.041 27.3013C186.757 27.7094 186.37 28.1008 185.879 28.4756C185.396 28.8504 184.813 29.1585 184.13 29.4001C183.447 29.6333 182.668 29.7499 181.794 29.7499ZM192.912 18.8686V29.5H189.314V15.9828H192.687L192.912 18.8686ZM192.388 22.2666H191.413C191.413 21.2672 191.542 20.3677 191.8 19.5682C192.059 18.7603 192.421 18.0732 192.887 17.5069C193.354 16.9322 193.908 16.495 194.549 16.1951C195.198 15.887 195.923 15.7329 196.723 15.7329C197.356 15.7329 197.934 15.8245 198.459 16.0077C198.984 16.191 199.434 16.4825 199.808 16.8822C200.191 17.282 200.483 17.8109 200.683 18.4688C200.891 19.1268 200.995 19.9305 200.995 20.8799V29.5H197.372V20.8675C197.372 20.2678 197.289 19.8014 197.122 19.4683C196.956 19.1351 196.71 18.9019 196.385 18.7687C196.069 18.6271 195.677 18.5563 195.211 18.5563C194.728 18.5563 194.307 18.6521 193.949 18.8436C193.599 19.0352 193.308 19.3017 193.075 19.6432C192.85 19.9763 192.679 20.3677 192.562 20.8175C192.446 21.2672 192.388 21.7503 192.388 22.2666ZM210.352 15.9828V18.5313H202.482V15.9828H210.352ZM204.431 12.6472H208.029V25.4273C208.029 25.8188 208.079 26.1186 208.179 26.3268C208.287 26.535 208.445 26.6808 208.653 26.7641C208.861 26.839 209.124 26.8765 209.44 26.8765C209.665 26.8765 209.865 26.8682 210.04 26.8515C210.223 26.8265 210.377 26.8015 210.502 26.7766L210.515 29.425C210.207 29.525 209.873 29.6041 209.515 29.6624C209.157 29.7207 208.762 29.7499 208.328 29.7499C207.537 29.7499 206.846 29.6208 206.255 29.3626C205.672 29.0961 205.222 28.6713 204.905 28.0883C204.589 27.5053 204.431 26.7391 204.431 25.7896V12.6472Z" fill="#E1E1E6"/>
</svg>
